<?xml version="1.0"?>
<svg xmlns:rdf="http://www.w3.org/1999/02/22-rdf-syntax-ns#" xmlns="http://www.w3.org/2000/svg" xmlns:cc="http://creativecommons.org/ns#" xmlns:xlink="http://www.w3.org/1999/xlink" xmlns:dc="http://purl.org/dc/elements/1.1/" xmlns:svg="http://www.w3.org/2000/svg" id="svg1316" viewBox="0 0 311.94 187.09" version="1.0" y="0" x="0">
  <g id="layer1" transform="matrix(.13648 -.094009 .065093 .11151 20.07 118.44)">
    <path id="path5065" d="m374.44 235.15c-28.01 122.41-59.79 323.52-95.43 421.8-104.65-72.46-170.09-41.87-159.54 41.06 6.7707 53.218 107.92 95.879 173.7-8.6655 39.841-63.316 52.861-191.32 75.437-296.09 62.46 37.494 122.31 101.13 202.86 111.59-16.838 75.898-47.082 194.01-65.21 272.82-104.65-72.46-192.89-41.986-182.34 40.945 6.7707 53.218 177.12 90.859 205.55-23.531l103.19-415.31c-65.16 35.4-188.96-100.04-258.22-144.62zm10.854 74.896c65.248 37.815 131 118.89 206.47 122.72-2.5111 11.129-2.0944 26.125-4.5591 37.149-77.915-10.686-144.21-80.519-211.05-117.12 2.1323-10.115 7.3372-33.949 9.1345-42.74z"/>
  </g>
  <path id="path5065-6" d="m9.876 117.83c3.2731 15.381 9.2106 34.641 10.888 49.374-18.389-1.0377-25.932 8.6771-17.03 14.174 4.7433 2.929 17.72 4.1608 22.187-9.5309 0.3711-1.1375 0.40359-4.1927 0.09805-5.7636-2.712-13.944-9.8196-33.415-12.463-44.908 10.642 1.8616 25.904 6.5372 37.433 2.3254 2.1154 9.5157 6.0945 35.614 8.2038 45.538-18.389-1.0377-28.924 8.1774-21.116 15.179 5.3609 4.8077 26.345-3.6431 24.531-14.049l-9.3358-53.558c-6.7846 8.2572-31.421 1.5321-43.395 1.2181z"/>
  <path id="path5065-6-4" d="m180 76.995c4.5579 19.497 12.826 43.913 15.161 62.589-25.608-1.3154-36.111 10.999-23.715 17.968 6.6054 3.713 24.676 5.2744 30.896-12.082 0.51679-1.442 0.56202-5.3149 0.13655-7.3063-3.7766-17.676-14.218-44.534-17.899-59.103 5.7628 5.2231 9.5292 10.577 11.589 10.238-0.0333-2.1135 0.70723-4.169 0.77173-5.7904-6.5367-3.7211-4.8977-1.435-12.864-8.5487-1.1084-0.98971-0.46277 1.5319-4.0772 2.0362z"/>
  <path id="path5065-6-4-9" d="m238.4 35.069c4.5579 23.722 12.826 53.428 15.161 76.152-25.608-1.6005-36.111 13.383-23.715 21.861 6.6054 4.5176 24.676 6.4174 30.896-14.7 0.51679-1.7545 0.56202-6.4666 0.13655-8.8895-3.7766-21.507-14.218-54.185-17.899-71.911 5.7628 6.3549 9.5292 12.869 11.589 12.456-0.0333-2.5714 0.70723-5.0724 0.77173-7.0452-6.5367-4.5274-4.8977-1.7459-12.864-10.401-1.1084-1.2042-0.46277 1.8638-4.0772 2.4775z"/>
  <path id="path5065-6-4-0" d="m289.17 3.1638c4.5579 27.243 12.826 61.358 15.161 87.454-25.608-1.838-36.111 15.369-23.715 25.106 6.6054 5.188 24.676 7.3698 30.896-16.882 0.51679-2.0149 0.56202-7.4263 0.13655-10.209-3.7766-24.698-14.218-62.227-17.899-82.584 5.7628 7.298 9.5292 14.779 11.589 14.305-0.0333-2.9531 0.70723-5.8252 0.77173-8.0908-6.5367-5.1994-4.8977-2.005-12.864-11.945-1.1084-1.3829-0.46277 2.1405-4.0772 2.8452z"/>
  <metadata>
    <rdf:RDF>
      <cc:Work>
        <dc:format>image/svg+xml</dc:format>
        <dc:type rdf:resource="http://purl.org/dc/dcmitype/StillImage"/>
        <cc:license rdf:resource="http://creativecommons.org/licenses/publicdomain/"/>
        <dc:publisher>
          <cc:Agent rdf:about="http://openclipart.org/">
            <dc:title>Openclipart</dc:title>
          </cc:Agent>
        </dc:publisher>
        <dc:title>Cartoon melody</dc:title>
        <dc:date>2011-04-21T10:10:50</dc:date>
        <dc:description>cartoon, clip art, clipart, melody, music, musical note, note, onomatopoeia, sing, sound, </dc:description>
        <dc:source>http://openclipart.org/detail/133435/cartoon-melody-by-cybergedeon</dc:source>
        <dc:creator>
          <cc:Agent>
            <dc:title>dominiquechappard</dc:title>
          </cc:Agent>
        </dc:creator>
        <dc:subject>
          <rdf:Bag>
            <rdf:li>cartoon</rdf:li>
            <rdf:li>clip art</rdf:li>
            <rdf:li>clipart</rdf:li>
            <rdf:li>melody</rdf:li>
            <rdf:li>music</rdf:li>
            <rdf:li>musical note</rdf:li>
            <rdf:li>note</rdf:li>
            <rdf:li>onomatopoeia</rdf:li>
            <rdf:li>sing</rdf:li>
            <rdf:li>sound</rdf:li>
          </rdf:Bag>
        </dc:subject>
      </cc:Work>
      <cc:License rdf:about="http://creativecommons.org/licenses/publicdomain/">
        <cc:permits rdf:resource="http://creativecommons.org/ns#Reproduction"/>
        <cc:permits rdf:resource="http://creativecommons.org/ns#Distribution"/>
        <cc:permits rdf:resource="http://creativecommons.org/ns#DerivativeWorks"/>
      </cc:License>
    </rdf:RDF>
  </metadata>
</svg>
